<?xml version="1.0" encoding="utf-8"?>
<!-- Generator: Adobe Illustrator 21.0.2, SVG Export Plug-In . SVG Version: 6.00 Build 0)  -->
<svg version="1.1" id="Calque_1" xmlns="http://www.w3.org/2000/svg" xmlns:xlink="http://www.w3.org/1999/xlink" x="0px" y="0px"
	 viewBox="0 0 19 26" style="enable-background:new 0 0 19 26;" xml:space="preserve">
<path d="M19,24L19,24L19,24L19,24L19,24c-0.1-1,0-2,0-2.9c0-0.4,0-0.8,0-1.3c0-0.7,0-1.4-0.1-2.1c0-0.7-0.1-1.5-0.1-2.2v-0.1
	c0-0.1,0-0.3,0-0.4c0-0.1,0-0.2,0-0.3c0-0.1,0-0.1,0-0.2c0-0.3,0-0.5,0-0.8c0-0.1,0-0.2,0-0.3c0-0.8,0-1.5-0.1-2.1
	c0-0.4-0.1-0.7-0.1-1.1c0-0.4-0.1-0.7-0.1-1.1c0-0.2,0-0.3,0-0.5c0-0.4,0-0.8-0.2-1.2c-0.1-0.3-0.4-0.5-0.6-0.7
	c-0.3-0.2-0.6-0.2-0.9-0.2c-0.7,0-1.5,0.1-2.3,0.1c0-0.1,0-0.2,0-0.2c0-0.1,0-0.3,0-0.4c0-0.2,0-0.4-0.2-0.6c0-0.1,0-0.3,0-0.5
	c0-0.1,0-0.2,0-0.3c0-0.1,0-0.3-0.1-0.4c0,0,0-0.1-0.1-0.1c0-0.1-0.1-0.1-0.1-0.2c0-0.1,0-0.3-0.1-0.4c0-0.1,0-0.3-0.1-0.4
	c-0.1-0.3-0.3-0.5-0.4-0.8L13.2,2c-0.3-0.4-0.5-0.8-0.9-1.1c-0.2-0.2-0.4-0.4-0.7-0.5c-0.1,0-0.1-0.1-0.2-0.1
	C11.2,0.2,11,0.1,10.8,0c0,0-0.5,0-1,0C9.7,0,9.5,0,9.4,0C9,0,8.7,0.1,8.5,0.1C8.2,0.2,8,0.3,7.8,0.4H7.7C7.3,0.6,6.8,0.9,6.4,1.3
	C6.1,1.7,5.8,2.2,5.5,2.6C5.4,2.9,5.3,3.1,5.2,3.4C5.1,3.7,5,3.9,5,4.2c0,0.1,0,0.2,0,0.3C5,4.7,5,4.8,4.9,5c0,0.1,0,0.2,0,0.3
	s0,0.2,0,0.2c0,0.1,0,0.3,0,0.5v0.1c0,0.1,0,0.1,0,0.2c0,0.1,0,0.2,0,0.2c-0.1,0-0.1,0-0.2,0H4.5c-0.2,0-0.3,0-0.5,0
	c-0.3,0-0.6,0-0.9,0l0,0l0,0C3,6.5,2.9,6.6,2.8,6.7C2.7,6.8,2.6,6.9,2.5,7l0,0l0,0c0,0.1,0,0.3,0,0.4v0.1h0.1c0.8,0,1.5,0,2.2-0.1
	v0.1c0,0.3,0,0.7,0.1,1c0.1,0.2,0.2,0.5,0.5,0.5c0.4,0,0.6-0.3,0.6-0.7c0-0.2,0.1-0.4,0.1-0.6c0-0.1,0-0.2,0-0.3c0.4,0,0.7,0,1.1,0
	c0.2,0,0.4,0,0.6,0l4.5,0.1c0.1,0,0.2,0,0.3,0c0.2,0,0.3,0,0.5,0c0,0.1,0,0.2,0,0.2c0,0.4,0,0.9,0.2,1.1c0.1,0.1,0.2,0.1,0.4,0
	c0.6-0.2,0.6-0.8,0.6-1.3c0.5,0,1.1,0,1.6-0.1h0.4h0.1c0.1,0,0.2,0,0.3,0c0.1,0,0.1,0,0.2,0.1h0.1c0,0,0,0,0.1,0s0.1,0.1,0.2,0.1
	v0.1v0.1c0,0.1,0,0.2,0,0.3c0,0.2,0,0.4,0,0.5c0,0.1,0,0.1,0,0.2c0,0.4,0,0.8,0.1,1.2l0,0l0,0c0.2,0.2,0.2,0.4,0.2,0.7v0.1
	c0,0.1,0,0.2,0,0.3c0,0.2,0,0.4,0,0.6c0,0,0,0,0,0.1c0,0.1,0,0.2,0,0.4c0,0.1,0,0.2,0,0.3c0,0.1,0,0.3,0,0.4c0,0.2,0,0.4,0,0.6
	c0,0.1,0,0.2,0,0.3V14c0,0.1,0,0.2,0,0.3c-0.1,0.2-0.1,0.4-0.1,0.6c0,0.1,0,0.1,0,0.2c0,0.6,0,1.3,0,2c0,0.8,0.1,1.4,0,2
	c0,0.5,0,1.1,0,1.6c0,0.1,0,0.3,0,0.4l0.1,1.2c0,0.3,0,0.6,0,0.8v0.2c0,0.2,0,0.4,0,0.6v0.1c0,0.1,0,0.2,0,0.3h-0.1
	c-0.2,0.1-0.4,0.1-0.6,0.1c-0.2,0-0.4,0-0.5,0s-0.1,0-0.2,0c-0.6,0-1.1,0-1.7,0.1c-0.7,0-1.3,0-2,0c-0.6,0-1.3,0-1.9,0
	c-0.3,0-0.7,0-1,0c-0.8,0-1.5,0.1-2.3,0H5.2c-0.7,0-1.5,0-2.2,0c-0.4,0-0.8,0-1.1,0s-0.6-0.1-1-0.1l0,0c0.1-0.2,0.1-0.6,0.2-1.1
	c0-0.1,0-0.3,0-0.4v-1.8c0-0.8,0.1-1.6,0.1-2.6v-0.3c0.1-1,0.1-2.1,0.2-3.2c0-0.4,0.1-0.8,0.1-1.2c0-0.2,0-0.4,0-0.5
	c0-0.3,0-0.6,0.1-0.9v-0.1c0-0.1,0-0.2,0-0.3c0-0.1,0-0.1,0-0.1v-0.1c0-0.3,0-0.6,0-0.9s0-0.6,0-0.9c0-0.1,0-0.2,0-0.4
	c0-0.5-0.1-0.9,0-1.3V8.2H1.4C1.2,8.1,1,8.1,0.8,8.2l0,0l0,0c-0.1,1.1-0.2,2-0.2,2.9c0,1-0.1,2.1-0.2,3.1c-0.1,0.9-0.1,1.8-0.2,3
	c0,0.6-0.1,1.3-0.1,1.9c0,0.4-0.1,0.7-0.1,1.1c0,0.3,0,0.6,0,0.9c0,0.2,0,0.4,0,0.5v0.5c0,0.3,0,0.7,0,1c0,0.1,0,0.2,0,0.4
	c0,0.3,0,0.7,0,1c0,0.4,0.2,0.8,0.6,1.1C0.9,26,1.3,26,1.7,26h0.2c0.2,0,0.5,0,0.7,0h1.1c0.7,0,1.3,0,2,0c0.6,0,1.2,0,1.7,0
	c0.6,0,1.1,0,1.7,0c0.2,0,0.4,0,0.5,0c0.2,0,0.4,0,0.7,0c0.1,0,0.3,0,0.4,0c0.2,0,0.3,0,0.5-0.1c0.1,0,0.2,0,0.4-0.1
	c0.2,0,0.3,0,0.4,0c0,0,0,0,0.1,0h0.1c0,0,0,0,0.1,0l0,0l0,0l0,0c0.1,0,0.1,0,0.2,0s0.3-0.1,0.4-0.1c0,0,0.1,0,0.2,0s0.1,0,0.2,0
	s0.3,0,0.4,0c0.4,0,0.7,0,1.1,0.1c0.2,0,0.4,0,0.6,0.1c0.3,0,0.6,0,0.9,0c0.1,0,0.2,0,0.3,0c0.2,0,0.4,0,0.6,0
	c0.1,0,0.2-0.1,0.3-0.1c0.1,0,0.2-0.1,0.2-0.1H18c0.2,0,0.4,0,0.6-0.2c0.2-0.2,0.2-0.4,0.3-0.6c0-0.1,0-0.2,0-0.2c0-0.1,0-0.1,0-0.2
	c0-0.1,0.1-0.2,0.1-0.3C19,24.3,19,24.1,19,24z M6.5,6.4L6.5,6.4c-0.1,0-0.2,0-0.2,0c0-0.1,0-0.1,0-0.2V6.1c0-0.1,0-0.3,0-0.4
	c0-0.3,0-0.6,0.1-0.9c0-0.3,0-0.6,0.1-0.8V3.9c0-0.1,0-0.1,0-0.2c0-0.1,0-0.2,0.1-0.2c0-0.1,0.1-0.1,0.1-0.2s0.1-0.1,0.1-0.2
	c0-0.1,0.1-0.2,0.1-0.3c0-0.1,0-0.2,0.1-0.2C7.1,2.4,7.1,2.2,7.3,2c0.2-0.3,0.6-0.6,1-0.8c0.2-0.1,0.9-0.3,1.3,0l0,0l0,0
	c0.4,0,0.8,0.1,1.2,0.2h0.1c0.6,0.2,0.9,0.4,1.2,0.6c0.2,0.2,0.3,0.3,0.4,0.5c0.1,0.1,0.1,0.3,0.2,0.5c0,0.1,0,0.1,0.1,0.2
	c0,0.1,0.1,0.2,0.1,0.3C13,3.7,13,3.9,13.1,4c0.1,0.2,0.1,0.5,0.1,0.7c0,0.5,0,1,0,1.5c0,0.1,0,0.2,0,0.3c-0.1,0-0.2,0-0.3,0h-0.1
	l0,0L6.5,6.4z"/>
</svg>
